<svg xmlns="http://www.w3.org/2000/svg" version="1.1" xmlns:xlink="http://www.w3.org/1999/xlink" xmlns:svgjs="http://svgjs.dev/svgjs" width="1000" height="212" viewBox="0 0 1000 212"><g transform="matrix(1,0,0,1,-0.6060603967991938,-0.31928908433746983)"><svg viewBox="0 0 396 84" data-background-color="#ffffff" preserveAspectRatio="xMidYMid meet" height="212" width="1000" xmlns="http://www.w3.org/2000/svg" xmlns:xlink="http://www.w3.org/1999/xlink"><g id="tight-bounds" transform="matrix(1,0,0,1,0.24000008286759567,0.12651076926579208)"><svg viewBox="0 0 395.52 83.74697846146839" height="83.74697846146839" width="395.52"><g><svg viewBox="0 0 509.05545038653224 107.78685234429108" height="83.74697846146839" width="395.52"><g><rect width="4.469365609486133" height="107.78685234429108" x="97.36617480456933" y="0" fill="#0023ff" opacity="1" stroke-width="0" stroke="transparent" fill-opacity="1" class="rect-o-0" data-fill-palette-color="primary" rx="1%" id="o-0" data-palette-color="#0023ff"></rect></g><g transform="matrix(1,0,0,1,113.53545038653225,0.26812649836887914)"><svg viewBox="0 0 395.52 107.25059934755332" height="107.25059934755332" width="395.52"><g id="textblocktransform"><svg viewBox="0 0 395.52 107.25059934755332" height="107.25059934755332" width="395.52" id="textblock"><g><svg viewBox="0 0 395.52 107.25059934755332" height="107.25059934755332" width="395.52"><g transform="matrix(1,0,0,1,0,0)"><svg width="395.52" viewBox="0.6599998474121094 -36.060001373291016 292.77001953125 76.14000701904297" height="107.25059934755332" data-palette-color="#0023ff"><svg></svg><svg></svg><g class="undefined-text-0" data-fill-palette-color="primary" id="text-0"><path xmlns="http://www.w3.org/2000/svg" d="M13.87 0.51v0c-2.62 0-4.903-0.43-6.85-1.29-1.947-0.867-3.47-2.18-4.57-3.94-1.093-1.767-1.69-4.017-1.79-6.75v0l0.05-0.15h7.32c0.147 2.313 0.66 3.897 1.54 4.75 0.88 0.853 2.02 1.28 3.42 1.28v0c0.847 0 1.623-0.187 2.33-0.56 0.707-0.373 1.28-0.953 1.72-1.74 0.44-0.78 0.66-1.77 0.66-2.97v0-19.27l-4.83-0.78v-4.64h16.4v4.67l-3.76 0.75v19.27c0 2.34-0.453 4.36-1.36 6.06-0.913 1.7-2.233 3.01-3.96 3.93-1.727 0.92-3.833 1.38-6.32 1.38zM47.61 0.51v0c-2.427 0-4.647-0.447-6.66-1.34-2.007-0.893-3.747-2.153-5.22-3.78-1.473-1.633-2.603-3.543-3.39-5.73-0.793-2.187-1.19-4.573-1.19-7.16v0-0.57c0-2.567 0.397-4.943 1.19-7.13 0.787-2.18 1.913-4.083 3.38-5.71 1.467-1.627 3.2-2.89 5.2-3.79 2-0.907 4.213-1.36 6.64-1.36v0c2.427 0 4.647 0.453 6.66 1.36 2.02 0.9 3.78 2.163 5.28 3.79 1.493 1.627 2.653 3.53 3.48 5.71 0.82 2.187 1.23 4.563 1.23 7.13v0 0.57c0 2.587-0.41 4.973-1.23 7.16-0.827 2.187-1.983 4.097-3.47 5.73-1.487 1.627-3.243 2.887-5.27 3.78-2.027 0.893-4.237 1.34-6.63 1.34zM47.61-5.49v0c1.9 0 3.503-0.5 4.81-1.5 1.3-1.007 2.287-2.407 2.96-4.2 0.68-1.8 1.02-3.903 1.02-6.31v0-0.62c0-2.36-0.343-4.43-1.03-6.21-0.68-1.78-1.673-3.177-2.98-4.19-1.3-1.007-2.91-1.51-4.83-1.51v0c-1.94 0-3.543 0.497-4.81 1.49-1.273 0.993-2.217 2.38-2.83 4.16-0.62 1.787-0.93 3.873-0.93 6.26v0 0.62c0 2.387 0.313 4.483 0.94 6.29 0.627 1.807 1.58 3.213 2.86 4.22 1.273 1 2.88 1.5 4.82 1.5zM84.5 0h-17.7v-4.64l3.73-0.76v-24.73l-3.73-0.75v-4.67h3.73 12.21c4.327 0 7.703 0.82 10.13 2.46 2.427 1.633 3.64 4.07 3.64 7.31v0c0 1.66-0.42 3.143-1.26 4.45-0.84 1.313-2.08 2.303-3.72 2.97v0c1.413 0.307 2.58 0.843 3.5 1.61 0.92 0.767 1.603 1.69 2.05 2.77 0.447 1.087 0.67 2.263 0.67 3.53v0c0 3.433-1.143 6.033-3.43 7.8-2.287 1.767-5.56 2.65-9.82 2.65zM78.39-15.43v9.45h6.11c1.787 0 3.14-0.373 4.06-1.12 0.92-0.753 1.38-1.87 1.38-3.35v0c0-1.107-0.173-2.027-0.52-2.76-0.353-0.733-0.89-1.287-1.61-1.66-0.727-0.373-1.677-0.56-2.85-0.56v0zM78.39-29.54v8.81h4.3c1.953 0 3.44-0.357 4.46-1.07 1.013-0.72 1.52-1.787 1.52-3.2v0c0-1.56-0.497-2.707-1.49-3.44-0.993-0.733-2.473-1.1-4.44-1.1v0zM114.79 0.51v0c-2.747 0-5.22-0.283-7.42-0.85-2.193-0.573-4.367-1.6-6.52-3.08v0-8.93h6.06l0.76 4.9c0.613 0.607 1.573 1.103 2.88 1.49 1.3 0.393 2.713 0.59 4.24 0.59v0c1.207 0 2.213-0.153 3.02-0.46 0.807-0.313 1.417-0.767 1.83-1.36 0.413-0.593 0.62-1.297 0.62-2.11v0c0-0.78-0.19-1.473-0.57-2.08-0.38-0.6-1.007-1.16-1.88-1.68-0.873-0.52-2.05-1.04-3.53-1.56v0c-2.927-0.9-5.343-1.85-7.25-2.85-1.907-1-3.327-2.187-4.26-3.56-0.933-1.38-1.4-3.06-1.4-5.04v0c0-1.953 0.55-3.667 1.65-5.14 1.093-1.473 2.607-2.633 4.54-3.48 1.927-0.847 4.133-1.287 6.62-1.32v0c2.833-0.067 5.333 0.233 7.5 0.9 2.167 0.667 4.063 1.627 5.69 2.88v0 8.3h-5.86l-0.95-4.83c-0.587-0.327-1.4-0.62-2.44-0.88-1.047-0.26-2.187-0.39-3.42-0.39v0c-1.073 0-2.023 0.15-2.85 0.45-0.82 0.3-1.467 0.743-1.94 1.33-0.473 0.587-0.71 1.313-0.71 2.18v0c0 0.7 0.2 1.327 0.6 1.88 0.4 0.553 1.097 1.083 2.09 1.59 0.993 0.513 2.37 1.08 4.13 1.7v0c3.967 1.14 6.983 2.607 9.05 4.4 2.067 1.787 3.1 4.17 3.1 7.15v0c0 2.067-0.56 3.837-1.68 5.31-1.127 1.473-2.69 2.6-4.69 3.38-2 0.78-4.337 1.17-7.01 1.17z" fill="#0023ff" fill-rule="nonzero" stroke="none" stroke-width="1" stroke-linecap="butt" stroke-linejoin="miter" stroke-miterlimit="10" stroke-dasharray="" stroke-dashoffset="0" font-family="none" font-weight="none" font-size="none" text-anchor="none" style="mix-blend-mode: normal" data-fill-palette-color="primary" opacity="1"></path><path xmlns="http://www.w3.org/2000/svg" d="M18.02 40.08v0c-2.427 0-4.647-0.447-6.66-1.34-2.007-0.893-3.747-2.153-5.22-3.78-1.473-1.633-2.603-3.543-3.39-5.73-0.793-2.187-1.19-4.573-1.19-7.16v0-0.57c0-2.567 0.397-4.943 1.19-7.13 0.787-2.18 1.913-4.083 3.38-5.71 1.467-1.627 3.2-2.89 5.2-3.79 2-0.907 4.213-1.36 6.64-1.36v0c2.427 0 4.647 0.453 6.66 1.36 2.02 0.9 3.78 2.163 5.28 3.79 1.493 1.627 2.653 3.53 3.48 5.71 0.82 2.187 1.23 4.563 1.23 7.13v0 0.57c0 2.587-0.41 4.973-1.23 7.16-0.827 2.187-1.983 4.097-3.47 5.73-1.487 1.627-3.243 2.887-5.27 3.78-2.027 0.893-4.237 1.34-6.63 1.34zM18.02 34.08v0c1.9 0 3.503-0.5 4.81-1.5 1.3-1.007 2.287-2.407 2.96-4.2 0.68-1.8 1.02-3.903 1.02-6.31v0-0.62c0-2.36-0.343-4.43-1.03-6.21-0.68-1.78-1.673-3.177-2.98-4.19-1.3-1.007-2.91-1.51-4.83-1.51v0c-1.94 0-3.543 0.497-4.81 1.49-1.273 0.993-2.217 2.38-2.83 4.16-0.62 1.787-0.93 3.873-0.93 6.26v0 0.62c0 2.387 0.313 4.483 0.94 6.29 0.627 1.807 1.58 3.213 2.86 4.22 1.273 1 2.88 1.5 4.82 1.5zM52.54 39.57h-15.33v-4.64l3.73-0.76v-24.73l-3.73-0.75v-4.69h17.16c2.767 0 5.16 0.44 7.18 1.32 2.02 0.88 3.57 2.123 4.65 3.73 1.08 1.613 1.62 3.533 1.62 5.76v0c0 2.087-0.543 3.993-1.63 5.72-1.093 1.72-2.593 3.087-4.5 4.1-1.9 1.007-4.087 1.51-6.56 1.51v0l-6.33-0.02v8.05l3.74 0.76zM69.41 39.57h-9.52l-5.37-14.6 6.93-2.07 4.76 11.27 3.2 0.76zM48.8 10.03v10.03h5.55c1.853 0 3.26-0.407 4.22-1.22 0.96-0.813 1.44-2 1.44-3.56v0c0-1.593-0.48-2.867-1.44-3.82-0.96-0.953-2.36-1.43-4.2-1.43v0zM88.45 40.08v0c-3.613 0-6.68-0.723-9.2-2.17-2.527-1.447-4.453-3.46-5.78-6.04-1.327-2.58-1.99-5.563-1.99-8.95v0-1.42c0-3.547 0.66-6.667 1.98-9.36 1.32-2.693 3.213-4.803 5.68-6.33 2.467-1.533 5.407-2.3 8.82-2.3v0c2.493 0 4.91 0.363 7.25 1.09 2.347 0.72 4.4 1.82 6.16 3.3v0 8.11h-5.69l-1.15-4.64c-0.6-0.553-1.42-1.01-2.46-1.37-1.047-0.353-2.237-0.53-3.57-0.53v0c-1.967 0-3.64 0.503-5.02 1.51-1.373 1.007-2.417 2.41-3.13 4.21-0.72 1.8-1.08 3.887-1.08 6.26v0 1.47c0 2.28 0.367 4.257 1.1 5.93 0.733 1.68 1.8 2.983 3.2 3.91 1.4 0.927 3.117 1.39 5.15 1.39v0c1.14 0 2.227-0.113 3.26-0.34 1.033-0.227 1.86-0.487 2.48-0.78v0-5.33l-4.54-0.43v-5.45h12.4v14.55c-1.74 1.187-3.77 2.103-6.09 2.75-2.32 0.64-4.913 0.96-7.78 0.96zM117.8 39.57h-12.7v-4.64l2.52-0.36 10.96-30.55h8.28l10.93 30.55 2.52 0.36v4.64h-12.7v-4.64l2.39-0.44-1.31-4.37h-11.97l-1.29 4.37 2.37 0.44zM122.19 13.13l-3.73 11.35h8.44l-3.78-11.47-0.39-1.15h-0.15zM157.59 39.57h-15.35v-4.64l3.73-0.76v-24.73l-3.73-0.75v-4.67h3.73 7.99l14.86 23.71 0.15-0.03v-18.26l-4.61-0.75v-4.67h11.59 3.74v4.67l-3.74 0.75v30.13h-7.69l-15.16-23.34-0.15 0.02v17.92l4.64 0.76zM196.8 39.57h-15.31v-4.64l3.74-0.76v-24.73l-3.74-0.75v-4.67h15.31v4.67l-3.73 0.75v24.73l3.73 0.76zM226.86 39.57h-27.2v-5.03l16.99-24.49h-9.91l-0.59 4.54h-5.93l0.37-10.57h25.83v4.84l-17.04 24.7h11.49l0.66-4.37h5.89zM257.74 39.57h-28.44v-4.64l3.73-0.76v-24.73l-3.73-0.75v-4.67h28v9.94h-5.98l-0.27-3.91h-10.16v8.13h11.67v6.03h-11.67v9.33h10.7l0.27-4.05h5.88zM276.56 39.57h-15.33v-4.64l3.74-0.76v-24.73l-3.74-0.75v-4.69h17.16c2.767 0 5.16 0.44 7.18 1.32 2.02 0.88 3.57 2.123 4.65 3.73 1.087 1.613 1.63 3.533 1.63 5.76v0c0 2.087-0.547 3.993-1.64 5.72-1.093 1.72-2.59 3.087-4.49 4.1-1.907 1.007-4.097 1.51-6.57 1.51v0l-6.32-0.02v8.05l3.73 0.76zM293.43 39.57h-9.52l-5.37-14.6 6.93-2.07 4.76 11.27 3.2 0.76zM272.83 10.03v10.03h5.54c1.853 0 3.26-0.407 4.22-1.22 0.96-0.813 1.44-2 1.44-3.56v0c0-1.593-0.48-2.867-1.44-3.82-0.96-0.953-2.36-1.43-4.2-1.43v0z" fill="#0023ff" fill-rule="nonzero" stroke="none" stroke-width="1" stroke-linecap="butt" stroke-linejoin="miter" stroke-miterlimit="10" stroke-dasharray="" stroke-dashoffset="0" font-family="none" font-weight="none" font-size="none" text-anchor="none" style="mix-blend-mode: normal" data-fill-palette-color="primary" opacity="1"></path></g></svg></g></svg></g></svg></g></svg></g><g transform="matrix(1,0,0,1,0,0.26812649836888625)"><svg viewBox="0 0 85.66626483209254 107.2505993475533" height="107.2505993475533" width="85.66626483209254"><g><svg xmlns="http://www.w3.org/2000/svg" xmlns:xlink="http://www.w3.org/1999/xlink" version="1.1" x="0" y="0" viewBox="11.800000190734863 1.7000000476837158 76.59999084472656 95.9000015258789" style="enable-background:new 0 0 100 100;" xml:space="preserve" height="107.2505993475533" width="85.66626483209254" class="icon-icon-0" data-fill-palette-color="accent" id="icon-0"><path d="M88.3 29.1l-0.1-0.4c-0.2-0.6-0.5-1.1-0.9-1.5l-24-24.3c-0.3-0.3-0.6-0.5-1-0.7L61 1.8 23 1.7c-6.2 0-11.2 5-11.2 11.2v73.5c0 6.2 5 11.2 11.2 11.2h54.2c6.2 0 11.2-5 11.2-11.2V30.1L88.3 29.1zM63.4 14.6L76 27.3h-9.4c-1.7 0-3.1-1.4-3.1-3.1V14.6zM24.7 48.4V31.7c0-0.9 0.7-1.6 1.6-1.6h7.2v-3.3c0-0.6 0.5-1 1-1h9c0.6 0 1 0.5 1 1v3.3h7.2c0.8 0 1.5 0.7 1.5 1.6v16.6c0 0.9-0.7 1.6-1.6 1.6H26.3C25.4 49.9 24.7 49.2 24.7 48.4zM77.6 85H62.4v-3.7h15.2V85zM77.6 75.3H49.3v-3.7h28.3V75.3zM77.6 65.9H49.3v-3.7h28.3V65.9z" fill="#0023ff" data-fill-palette-color="accent"></path><rect x="35.5" y="27.9" width="7" height="2.3" fill="#0023ff" data-fill-palette-color="accent"></rect></svg></g></svg></g></svg></g><defs></defs></svg><rect width="395.52" height="83.74697846146839" fill="none" stroke="none" visibility="hidden"></rect></g></svg></g></svg>